<svg width="140" height="40" viewBox="0 0 140 40" fill="none" xmlns="http://www.w3.org/2000/svg">
<path d="M51.462 26.1415C49.734 26.1415 48.384 25.7215 47.412 24.8815C46.44 24.0295 45.924 22.8235 45.864 21.2635C45.852 20.9155 45.846 20.3635 45.846 19.6075C45.846 18.8515 45.852 18.2995 45.864 17.9515C45.924 16.4275 46.446 15.2515 47.43 14.4235C48.426 13.5955 49.77 13.1815 51.462 13.1815C52.602 13.1815 53.592 13.3675 54.432 13.7395C55.284 14.1115 55.932 14.5855 56.376 15.1615C56.832 15.7375 57.072 16.3315 57.096 16.9435C57.096 17.0515 57.054 17.1415 56.97 17.2135C56.898 17.2855 56.808 17.3215 56.7 17.3215H54.072C53.952 17.3215 53.856 17.3035 53.784 17.2675C53.712 17.2315 53.652 17.1655 53.604 17.0695C53.448 16.7215 53.202 16.4215 52.866 16.1695C52.53 15.9055 52.062 15.7735 51.462 15.7735C50.034 15.7735 49.284 16.5295 49.212 18.0415C49.2 18.3775 49.194 18.8995 49.194 19.6075C49.194 20.3035 49.2 20.8255 49.212 21.1735C49.284 22.7575 50.052 23.5495 51.516 23.5495C52.224 23.5495 52.788 23.3695 53.208 23.0095C53.64 22.6375 53.856 22.0735 53.856 21.3175V20.9755H52.164C52.032 20.9755 51.924 20.9335 51.84 20.8495C51.756 20.7535 51.714 20.6395 51.714 20.5075V19.1755C51.714 19.0435 51.756 18.9355 51.84 18.8515C51.924 18.7555 52.032 18.7075 52.164 18.7075H56.7C56.832 18.7075 56.94 18.7555 57.024 18.8515C57.108 18.9355 57.15 19.0435 57.15 19.1755V21.2275C57.15 22.2475 56.916 23.1295 56.448 23.8735C55.98 24.6055 55.314 25.1695 54.45 25.5655C53.598 25.9495 52.602 26.1415 51.462 26.1415ZM63.4451 26.1415C61.9571 26.1415 60.8111 25.7875 60.0071 25.0795C59.2031 24.3715 58.7651 23.3755 58.6931 22.0915C58.6811 21.9355 58.6751 21.6655 58.6751 21.2815C58.6751 20.8975 58.6811 20.6275 58.6931 20.4715C58.7651 19.1995 59.2151 18.2095 60.0431 17.5015C60.8711 16.7815 62.0051 16.4215 63.4451 16.4215C64.8971 16.4215 66.0371 16.7815 66.8651 17.5015C67.6931 18.2095 68.1431 19.1995 68.2151 20.4715C68.2271 20.6275 68.2331 20.8975 68.2331 21.2815C68.2331 21.6655 68.2271 21.9355 68.2151 22.0915C68.1431 23.3755 67.7051 24.3715 66.9011 25.0795C66.0971 25.7875 64.9451 26.1415 63.4451 26.1415ZM63.4451 23.9455C63.9731 23.9455 64.3631 23.7895 64.6151 23.4775C64.8671 23.1535 65.0111 22.6615 65.0471 22.0015C65.0591 21.8815 65.0651 21.6415 65.0651 21.2815C65.0651 20.9215 65.0591 20.6815 65.0471 20.5615C65.0111 19.9135 64.8611 19.4275 64.5971 19.1035C64.3451 18.7795 63.9611 18.6175 63.4451 18.6175C62.4491 18.6175 61.9211 19.2655 61.8611 20.5615L61.8431 21.2815L61.8611 22.0015C61.8851 22.6615 62.0231 23.1535 62.2751 23.4775C62.5391 23.7895 62.9291 23.9455 63.4451 23.9455Z" fill="black"/>
<path d="M75.385 26.1415C73.669 26.1415 72.325 25.7275 71.353 24.8995C70.393 24.0595 69.883 22.8475 69.823 21.2635C69.811 20.9395 69.805 20.4115 69.805 19.6795C69.805 18.9355 69.811 18.3955 69.823 18.0595C69.883 16.4995 70.405 15.2995 71.389 14.4595C72.373 13.6075 73.705 13.1815 75.385 13.1815C76.441 13.1815 77.389 13.3615 78.229 13.7215C79.069 14.0695 79.729 14.5735 80.209 15.2335C80.701 15.8815 80.953 16.6435 80.965 17.5195V17.5555C80.965 17.6515 80.923 17.7355 80.839 17.8075C80.767 17.8675 80.683 17.8975 80.587 17.8975H78.157C78.001 17.8975 77.881 17.8675 77.797 17.8075C77.713 17.7355 77.641 17.6095 77.581 17.4295C77.413 16.8175 77.149 16.3915 76.789 16.1515C76.429 15.8995 75.955 15.7735 75.367 15.7735C73.951 15.7735 73.219 16.5655 73.171 18.1495C73.159 18.4735 73.153 18.9715 73.153 19.6435C73.153 20.3155 73.159 20.8255 73.171 21.1735C73.219 22.7575 73.951 23.5495 75.367 23.5495C75.955 23.5495 76.435 23.4235 76.807 23.1715C77.179 22.9075 77.437 22.4815 77.581 21.8935C77.629 21.7135 77.695 21.5935 77.779 21.5335C77.863 21.4615 77.989 21.4255 78.157 21.4255H80.587C80.695 21.4255 80.785 21.4615 80.857 21.5335C80.941 21.6055 80.977 21.6955 80.965 21.8035C80.953 22.6795 80.701 23.4475 80.209 24.1075C79.729 24.7555 79.069 25.2595 78.229 25.6195C77.389 25.9675 76.441 26.1415 75.385 26.1415ZM87.0877 26.1415C85.5997 26.1415 84.4537 25.7875 83.6497 25.0795C82.8457 24.3715 82.4077 23.3755 82.3357 22.0915C82.3237 21.9355 82.3177 21.6655 82.3177 21.2815C82.3177 20.8975 82.3237 20.6275 82.3357 20.4715C82.4077 19.1995 82.8577 18.2095 83.6857 17.5015C84.5137 16.7815 85.6477 16.4215 87.0877 16.4215C88.5397 16.4215 89.6797 16.7815 90.5077 17.5015C91.3357 18.2095 91.7857 19.1995 91.8577 20.4715C91.8697 20.6275 91.8757 20.8975 91.8757 21.2815C91.8757 21.6655 91.8697 21.9355 91.8577 22.0915C91.7857 23.3755 91.3477 24.3715 90.5437 25.0795C89.7397 25.7875 88.5877 26.1415 87.0877 26.1415ZM87.0877 23.9455C87.6157 23.9455 88.0057 23.7895 88.2577 23.4775C88.5097 23.1535 88.6537 22.6615 88.6897 22.0015C88.7017 21.8815 88.7077 21.6415 88.7077 21.2815C88.7077 20.9215 88.7017 20.6815 88.6897 20.5615C88.6537 19.9135 88.5037 19.4275 88.2397 19.1035C87.9877 18.7795 87.6037 18.6175 87.0877 18.6175C86.0917 18.6175 85.5637 19.2655 85.5037 20.5615L85.4857 21.2815L85.5037 22.0015C85.5277 22.6615 85.6657 23.1535 85.9177 23.4775C86.1817 23.7895 86.5717 23.9455 87.0877 23.9455ZM94.1136 25.9615C93.9816 25.9615 93.8736 25.9195 93.7896 25.8355C93.7056 25.7515 93.6636 25.6435 93.6636 25.5115V17.0515C93.6636 16.9195 93.7056 16.8115 93.7896 16.7275C93.8736 16.6435 93.9816 16.6015 94.1136 16.6015H96.1836C96.3156 16.6015 96.4236 16.6495 96.5076 16.7455C96.6036 16.8295 96.6516 16.9315 96.6516 17.0515V17.7715C97.3116 16.9915 98.1996 16.6015 99.3156 16.6015H100.108C100.24 16.6015 100.348 16.6435 100.432 16.7275C100.516 16.8115 100.558 16.9195 100.558 17.0515V18.9055C100.558 19.0255 100.516 19.1335 100.432 19.2295C100.348 19.3135 100.24 19.3555 100.108 19.3555H98.3616C97.8696 19.3555 97.4856 19.4935 97.2096 19.7695C96.9456 20.0335 96.8136 20.4115 96.8136 20.9035V25.5115C96.8136 25.6435 96.7656 25.7515 96.6696 25.8355C96.5856 25.9195 96.4776 25.9615 96.3456 25.9615H94.1136ZM106.178 26.1415C104.69 26.1415 103.544 25.7875 102.74 25.0795C101.936 24.3715 101.498 23.3755 101.426 22.0915C101.414 21.9355 101.408 21.6655 101.408 21.2815C101.408 20.8975 101.414 20.6275 101.426 20.4715C101.498 19.1995 101.948 18.2095 102.776 17.5015C103.604 16.7815 104.738 16.4215 106.178 16.4215C107.63 16.4215 108.77 16.7815 109.598 17.5015C110.426 18.2095 110.876 19.1995 110.948 20.4715C110.96 20.6275 110.966 20.8975 110.966 21.2815C110.966 21.6655 110.96 21.9355 110.948 22.0915C110.876 23.3755 110.438 24.3715 109.634 25.0795C108.83 25.7875 107.678 26.1415 106.178 26.1415ZM106.178 23.9455C106.706 23.9455 107.096 23.7895 107.348 23.4775C107.6 23.1535 107.744 22.6615 107.78 22.0015C107.792 21.8815 107.798 21.6415 107.798 21.2815C107.798 20.9215 107.792 20.6815 107.78 20.5615C107.744 19.9135 107.594 19.4275 107.33 19.1035C107.078 18.7795 106.694 18.6175 106.178 18.6175C105.182 18.6175 104.654 19.2655 104.594 20.5615L104.576 21.2815L104.594 22.0015C104.618 22.6615 104.756 23.1535 105.008 23.4775C105.272 23.7895 105.662 23.9455 106.178 23.9455ZM113.203 25.9615C113.071 25.9615 112.963 25.9195 112.879 25.8355C112.795 25.7515 112.753 25.6435 112.753 25.5115V17.0515C112.753 16.9195 112.795 16.8115 112.879 16.7275C112.963 16.6435 113.071 16.6015 113.203 16.6015H115.273C115.405 16.6015 115.513 16.6435 115.597 16.7275C115.693 16.8115 115.741 16.9195 115.741 17.0515V17.7355C116.065 17.3395 116.479 17.0215 116.983 16.7815C117.499 16.5415 118.081 16.4215 118.729 16.4215C119.785 16.4215 120.643 16.7815 121.303 17.5015C121.963 18.2095 122.293 19.2055 122.293 20.4895V25.5115C122.293 25.6315 122.251 25.7395 122.167 25.8355C122.083 25.9195 121.975 25.9615 121.843 25.9615H119.575C119.455 25.9615 119.347 25.9195 119.251 25.8355C119.167 25.7395 119.125 25.6315 119.125 25.5115V20.5975C119.125 20.0335 118.987 19.6015 118.711 19.3015C118.435 18.9895 118.039 18.8335 117.523 18.8335C117.019 18.8335 116.623 18.9895 116.335 19.3015C116.047 19.6015 115.903 20.0335 115.903 20.5975V25.5115C115.903 25.6315 115.861 25.7395 115.777 25.8355C115.693 25.9195 115.585 25.9615 115.453 25.9615H113.203ZM127.128 26.1415C126.492 26.1415 125.91 26.0215 125.382 25.7815C124.866 25.5295 124.458 25.1935 124.158 24.7735C123.87 24.3415 123.726 23.8675 123.726 23.3515C123.726 22.5235 124.062 21.8575 124.734 21.3535C125.418 20.8495 126.354 20.5015 127.542 20.3095L129.792 19.9675V19.7155C129.792 19.2595 129.696 18.9235 129.504 18.7075C129.312 18.4915 128.988 18.3835 128.532 18.3835C128.256 18.3835 128.028 18.4315 127.848 18.5275C127.668 18.6235 127.482 18.7555 127.29 18.9235C127.122 19.0675 126.996 19.1635 126.912 19.2115C126.876 19.3075 126.81 19.3555 126.714 19.3555H124.752C124.632 19.3555 124.53 19.3195 124.446 19.2475C124.374 19.1635 124.344 19.0675 124.356 18.9595C124.368 18.6355 124.524 18.2755 124.824 17.8795C125.136 17.4835 125.604 17.1415 126.228 16.8535C126.864 16.5655 127.644 16.4215 128.568 16.4215C130.044 16.4215 131.136 16.7515 131.844 17.4115C132.552 18.0595 132.906 18.9355 132.906 20.0395V25.5115C132.906 25.6315 132.864 25.7395 132.78 25.8355C132.696 25.9195 132.588 25.9615 132.456 25.9615H130.368C130.248 25.9615 130.14 25.9195 130.044 25.8355C129.96 25.7395 129.918 25.6315 129.918 25.5115V24.8815C129.654 25.2535 129.282 25.5595 128.802 25.7995C128.334 26.0275 127.776 26.1415 127.128 26.1415ZM127.974 24.0895C128.526 24.0895 128.97 23.9095 129.306 23.5495C129.654 23.1895 129.828 22.6615 129.828 21.9655V21.7135L128.298 21.9835C127.218 22.1755 126.678 22.5535 126.678 23.1175C126.678 23.4175 126.804 23.6575 127.056 23.8375C127.308 24.0055 127.614 24.0895 127.974 24.0895Z" fill="#EC5863"/>
<path d="M18.1839 4.10667C19.6887 3.98416 21.0329 5.03234 21.1857 6.44702C21.3027 7.5301 20.6871 8.51305 19.718 8.97017L19.841 10.2541L20.318 11.2217C20.4268 11.4431 20.6409 11.5913 20.8857 11.6243C21.5458 11.7129 22.1821 11.8763 22.7874 12.1046C22.9924 12.1822 23.2204 12.1674 23.4103 12.0599L24.0285 11.7117L24.6692 10.7483C24.4709 10.2427 24.5134 9.65293 24.8366 9.16661C25.385 8.34231 26.5243 8.14029 27.3314 8.74786C28.0269 9.27086 28.2239 10.2482 27.7848 10.9948C27.5055 11.4705 27.0382 11.7592 26.537 11.8314L25.8274 12.8992L25.75 13.5696C25.7234 13.8 25.8046 14.0287 25.9669 14.1955C26.5121 14.7584 26.9815 15.395 27.3586 16.0876C27.4852 16.3206 27.7263 16.4694 27.9914 16.4846L29.3556 16.5636L31.0324 16.1347C31.2284 15.4167 31.7955 14.8213 32.5712 14.6229C33.744 14.3232 34.9412 15.0442 35.2147 16.2274C35.4617 17.2948 34.8437 18.3936 33.8001 18.7378C32.9854 19.0058 32.1395 18.7668 31.5838 18.2105L29.8972 18.6413L28.846 19.2997C28.5639 19.4763 28.3985 19.7872 28.4015 20.1196C28.4015 20.1216 28.4016 20.1229 28.4016 20.1249C28.4057 20.6974 28.3525 21.2577 28.2493 21.8C28.1871 22.1229 28.2921 22.4555 28.5337 22.6808L29.4558 23.5404L31.4786 24.4986C31.9391 24.2701 32.4972 24.2474 32.9992 24.4846C33.8991 24.9112 34.2634 26.0076 33.774 26.8872C33.354 27.6403 32.4175 27.9697 31.613 27.6461C31.0644 27.4254 30.6955 26.9644 30.5694 26.4415L28.5335 25.4775L27.1705 25.2925C26.9191 25.2589 26.6666 25.3556 26.509 25.5526C25.8834 26.3295 25.1261 26.9963 24.2699 27.519C24.0571 27.6489 23.9293 27.8811 23.9291 28.1298L23.9257 29.483L24.4045 30.9623C25.331 31.0622 26.158 31.6893 26.4619 32.6289C26.8708 33.8913 26.1823 35.241 24.9229 35.6569C23.6641 36.0728 22.2791 35.386 21.8533 34.1335C21.555 33.2567 21.791 32.333 22.3828 31.7061L21.8744 30.136L21.0437 28.9913C20.9208 28.821 20.7163 28.731 20.5074 28.7489C20.2754 28.769 20.0415 28.7798 19.8048 28.7809C18.5188 28.7866 17.2958 28.5106 16.1942 28.013C16.0326 27.9404 15.8472 27.9432 15.6887 28.0211L14.9922 28.3645L14.2987 29.2909C14.4687 29.8071 14.3934 30.393 14.0437 30.8605C13.4498 31.6536 12.3008 31.7922 11.5289 31.1413C10.864 30.5808 10.7215 29.594 11.2015 28.8728C11.5072 28.4134 11.9893 28.1508 12.4939 28.1067L13.2623 27.0799L13.4397 26.0478C12.734 25.3004 12.1604 24.4281 11.7557 23.4687L10.2759 23.2331L8.75149 23.5455C8.52394 24.4508 7.83297 25.1881 6.90605 25.3898C5.59641 25.6744 4.31249 24.783 4.03886 23.3983C3.76524 22.0142 4.60431 20.6612 5.91396 20.3767C6.89405 20.1636 7.85917 20.6088 8.39762 21.427L9.8354 21.132L10.9664 20.4183C11.0404 20.3715 11.0845 20.2902 11.0839 20.2032L11.0839 20.2019C11.0722 18.5791 11.5149 17.0578 12.2932 15.7567C12.3354 15.6852 12.3407 15.5975 12.3046 15.5224L11.7799 14.415L10.3622 13.1257C9.85788 13.2058 9.32166 13.0649 8.91464 12.6943C8.17935 12.0249 8.15265 10.8734 8.87809 10.1753C9.51473 9.56323 10.5369 9.53513 11.2104 10.1106C11.6464 10.4829 11.8501 11.0192 11.8144 11.5442L13.2321 12.8335L14.3725 13.2492C14.4516 13.2783 14.5396 13.2648 14.6076 13.2154C15.3088 12.7012 16.0909 12.2901 16.9317 12.005C17.1626 11.9261 17.3414 11.7421 17.4061 11.5075L17.695 10.4528L17.5636 9.08445C16.5887 8.7531 15.847 7.91818 15.7357 6.88938C15.5828 5.4747 16.6791 4.22853 18.1839 4.10667Z" fill="#EC5863"/>
<path d="M26.1543 20.1348C26.129 16.6107 23.2378 13.7666 19.6968 13.7823C16.1557 13.7981 13.3057 16.6677 13.3311 20.1919C13.3565 23.716 16.2476 26.5601 19.7887 26.5444C23.3297 26.5286 26.1797 23.659 26.1543 20.1348Z" fill="#F58A97"/>
<path d="M19.7747 24.5994C16.5658 24.6137 13.8906 22.2796 13.398 19.2191C13.3516 19.5364 13.3287 19.8612 13.3311 20.1919C13.3565 23.7161 16.2475 26.5601 19.7887 26.5444C23.3298 26.5286 26.1797 23.6591 26.1543 20.1348C26.152 19.8042 26.1244 19.4796 26.0734 19.1627C25.6248 22.2274 22.9835 24.5852 19.7747 24.5994Z" fill="#F07281"/>
<path d="M8.16367 30.9516C8.15644 29.9481 7.33312 29.1381 6.32473 29.1426C5.31634 29.1471 4.50473 29.9643 4.51196 30.9679C4.51919 31.9714 5.34251 32.7814 6.3509 32.7769C7.3593 32.7724 8.1709 31.9552 8.16367 30.9516Z" fill="#EB5569"/>
<path d="M31.615 31.3441C31.6102 30.6812 31.0664 30.1462 30.4003 30.1492C29.7343 30.1522 29.1982 30.6919 29.203 31.3548C29.2078 32.0177 29.7516 32.5526 30.4176 32.5497C31.0837 32.5467 31.6198 32.0069 31.615 31.3441Z" fill="#EB5569"/>
<path d="M34.0077 9.29568C34.0007 8.31932 33.1997 7.53136 32.2187 7.53572C31.2376 7.54008 30.448 8.33512 30.455 9.31148C30.4621 10.2878 31.2631 11.0758 32.2441 11.0714C33.2252 11.0671 34.0148 10.272 34.0077 9.29568Z" fill="#EB5569"/>
<path d="M19.6447 22.1225C19.6381 21.2123 18.8913 20.4777 17.9767 20.4817C17.0621 20.4858 16.3259 21.227 16.3325 22.1373C16.339 23.0475 17.0858 23.7822 18.0004 23.7781C18.9151 23.774 19.6512 23.0328 19.6447 22.1225Z" fill="#EB5569"/>
<path d="M24.2502 20.779C24.2458 20.1594 23.7375 19.6594 23.1149 19.6622C22.4924 19.6649 21.9913 20.1694 21.9958 20.789C22.0002 21.4086 22.5085 21.9086 23.1311 21.9058C23.7536 21.9031 24.2547 21.3986 24.2502 20.779Z" fill="#EB5569"/>
<path d="M20.6684 17.2721C20.6647 16.7519 20.2379 16.332 19.7151 16.3343C19.1923 16.3366 18.7716 16.7603 18.7753 17.2806C18.7791 17.8008 19.2059 18.2207 19.7287 18.2184C20.2514 18.2161 20.6722 17.7924 20.6684 17.2721Z" fill="#EB5569"/>
</svg>
